0
SECTION
2
HEADER
9
$INSUNITS
70
4
0
ENDSEC
0
SECTION
2
TABLES
0
TABLE
2
LTYPE
0
LTYPE
72
65
70
64
2
CONTINUOUS
3
______
73
0
40
0
0
ENDTAB
0
TABLE
2
LAYER
0
ENDTAB
0
ENDSEC
0
SECTION
2
ENTITIES
0
LINE
8
front_outsideCutPath
10
0
20
103
11
0
21
91.4375
0
LINE
8
front_outsideCutPath
10
0
20
91.4375
11
2.8
21
91.4375
0
LINE
8
front_outsideCutPath
10
2.8
20
91.4375
11
2.8
21
76.0625
0
LINE
8
front_outsideCutPath
10
2.8
20
76.0625
11
0
21
76.0625
0
LINE
8
front_outsideCutPath
10
0
20
76.0625
11
0
21
60.6875
0
LINE
8
front_outsideCutPath
10
0
20
60.6875
11
2.8
21
60.6875
0
LINE
8
front_outsideCutPath
10
2.8
20
60.6875
11
2.8
21
45.3125
0
LINE
8
front_outsideCutPath
10
2.8
20
45.3125
11
0
21
45.3125
0
LINE
8
front_outsideCutPath
10
0
20
45.3125
11
0
21
29.9375
0
LINE
8
front_outsideCutPath
10
0
20
29.9375
11
2.8
21
29.9375
0
LINE
8
front_outsideCutPath
10
2.8
20
29.9375
11
2.8
21
14.5625
0
LINE
8
front_outsideCutPath
10
2.8
20
14.5625
11
0
21
14.5625
0
LINE
8
front_outsideCutPath
10
0
20
14.5625
11
0
21
3
0
LINE
8
front_outsideCutPath
10
0
20
3
11
17.3125
21
3
0
LINE
8
front_outsideCutPath
10
17.3125
20
3
11
17.3125
21
5.8
0
LINE
8
front_outsideCutPath
10
17.3125
20
5.8
11
32.6875
21
5.8
0
LINE
8
front_outsideCutPath
10
32.6875
20
5.8
11
32.6875
21
3
0
LINE
8
front_outsideCutPath
10
32.6875
20
3
11
48.0625
21
3
0
LINE
8
front_outsideCutPath
10
48.0625
20
3
11
50
21
3
0
LINE
8
front_outsideCutPath
10
50
20
3
11
50
21
14.5625
0
LINE
8
front_outsideCutPath
10
50
20
14.5625
11
47.2
21
14.5625
0
LINE
8
front_outsideCutPath
10
47.2
20
14.5625
11
47.2
21
29.9375
0
LINE
8
front_outsideCutPath
10
47.2
20
29.9375
11
50
21
29.9375
0
LINE
8
front_outsideCutPath
10
50
20
29.9375
11
50
21
45.3125
0
LINE
8
front_outsideCutPath
10
50
20
45.3125
11
47.2
21
45.3125
0
LINE
8
front_outsideCutPath
10
47.2
20
45.3125
11
47.2
21
60.6875
0
LINE
8
front_outsideCutPath
10
47.2
20
60.6875
11
50
21
60.6875
0
LINE
8
front_outsideCutPath
10
50
20
60.6875
11
50
21
76.0625
0
LINE
8
front_outsideCutPath
10
50
20
76.0625
11
47.2
21
76.0625
0
LINE
8
front_outsideCutPath
10
47.2
20
76.0625
11
47.2
21
91.4375
0
LINE
8
front_outsideCutPath
10
47.2
20
91.4375
11
50
21
91.4375
0
LINE
8
front_outsideCutPath
10
50
20
91.4375
11
50
21
103
0
LINE
8
front_outsideCutPath
10
50
20
103
11
32.6875
21
103
0
LINE
8
front_outsideCutPath
10
32.6875
20
103
11
32.6875
21
100.2
0
LINE
8
front_outsideCutPath
10
32.6875
20
100.2
11
17.3125
21
100.2
0
LINE
8
front_outsideCutPath
10
17.3125
20
100.2
11
17.3125
21
103
0
LINE
8
front_outsideCutPath
10
17.3125
20
103
11
1.9375
21
103
0
LINE
8
front_outsideCutPath
10
1.9375
20
103
11
0
21
103
0
LINE
8
left_outsideCutPath
10
55.8
20
103
11
55.8
21
91.4375
0
LINE
8
left_outsideCutPath
10
55.8
20
91.4375
11
53
21
91.4375
0
LINE
8
left_outsideCutPath
10
53
20
91.4375
11
53
21
76.0625
0
LINE
8
left_outsideCutPath
10
53
20
76.0625
11
55.8
21
76.0625
0
LINE
8
left_outsideCutPath
10
55.8
20
76.0625
11
55.8
21
60.6875
0
LINE
8
left_outsideCutPath
10
55.8
20
60.6875
11
53
21
60.6875
0
LINE
8
left_outsideCutPath
10
53
20
60.6875
11
53
21
45.3125
0
LINE
8
left_outsideCutPath
10
53
20
45.3125
11
55.8
21
45.3125
0
LINE
8
left_outsideCutPath
10
55.8
20
45.3125
11
55.8
21
29.9375
0
LINE
8
left_outsideCutPath
10
55.8
20
29.9375
11
53
21
29.9375
0
LINE
8
left_outsideCutPath
10
53
20
29.9375
11
53
21
14.5625
0
LINE
8
left_outsideCutPath
10
53
20
14.5625
11
55.8
21
14.5625
0
LINE
8
left_outsideCutPath
10
55.8
20
14.5625
11
55.8
21
3
0
LINE
8
left_outsideCutPath
10
55.8
20
3
11
70.3125
21
3
0
LINE
8
left_outsideCutPath
10
70.3125
20
3
11
70.3125
21
5.8
0
LINE
8
left_outsideCutPath
10
70.3125
20
5.8
11
85.6875
21
5.8
0
LINE
8
left_outsideCutPath
10
85.6875
20
5.8
11
85.6875
21
3
0
LINE
8
left_outsideCutPath
10
85.6875
20
3
11
100.2
21
3
0
LINE
8
left_outsideCutPath
10
100.2
20
3
11
100.2
21
14.5625
0
LINE
8
left_outsideCutPath
10
100.2
20
14.5625
11
103
21
14.5625
0
LINE
8
left_outsideCutPath
10
103
20
14.5625
11
103
21
29.9375
0
LINE
8
left_outsideCutPath
10
103
20
29.9375
11
100.2
21
29.9375
0
LINE
8
left_outsideCutPath
10
100.2
20
29.9375
11
100.2
21
45.3125
0
LINE
8
left_outsideCutPath
10
100.2
20
45.3125
11
103
21
45.3125
0
LINE
8
left_outsideCutPath
10
103
20
45.3125
11
103
21
60.6875
0
LINE
8
left_outsideCutPath
10
103
20
60.6875
11
100.2
21
60.6875
0
LINE
8
left_outsideCutPath
10
100.2
20
60.6875
11
100.2
21
76.0625
0
LINE
8
left_outsideCutPath
10
100.2
20
76.0625
11
103
21
76.0625
0
LINE
8
left_outsideCutPath
10
103
20
76.0625
11
103
21
91.4375
0
LINE
8
left_outsideCutPath
10
103
20
91.4375
11
100.2
21
91.4375
0
LINE
8
left_outsideCutPath
10
100.2
20
91.4375
11
100.2
21
103
0
LINE
8
left_outsideCutPath
10
100.2
20
103
11
85.6875
21
103
0
LINE
8
left_outsideCutPath
10
85.6875
20
103
11
85.6875
21
100.2
0
LINE
8
left_outsideCutPath
10
85.6875
20
100.2
11
70.3125
21
100.2
0
LINE
8
left_outsideCutPath
10
70.3125
20
100.2
11
70.3125
21
103
0
LINE
8
left_outsideCutPath
10
70.3125
20
103
11
55.8
21
103
0
LINE
8
top_outsideCutPath
10
108.8
20
50.2
11
108.8
21
35.6875
0
LINE
8
top_outsideCutPath
10
108.8
20
35.6875
11
106
21
35.6875
0
LINE
8
top_outsideCutPath
10
106
20
35.6875
11
106
21
20.3125
0
LINE
8
top_outsideCutPath
10
106
20
20.3125
11
108.8
21
20.3125
0
LINE
8
top_outsideCutPath
10
108.8
20
20.3125
11
108.8
21
5.8
0
LINE
8
top_outsideCutPath
10
108.8
20
5.8
11
123.3125
21
5.8
0
LINE
8
top_outsideCutPath
10
123.3125
20
5.8
11
123.3125
21
3
0
LINE
8
top_outsideCutPath
10
123.3125
20
3
11
138.6875
21
3
0
LINE
8
top_outsideCutPath
10
138.6875
20
3
11
138.6875
21
5.8
0
LINE
8
top_outsideCutPath
10
138.6875
20
5.8
11
153.2
21
5.8
0
LINE
8
top_outsideCutPath
10
153.2
20
5.8
11
153.2
21
20.3125
0
LINE
8
top_outsideCutPath
10
153.2
20
20.3125
11
156
21
20.3125
0
LINE
8
top_outsideCutPath
10
156
20
20.3125
11
156
21
35.6875
0
LINE
8
top_outsideCutPath
10
156
20
35.6875
11
153.2
21
35.6875
0
LINE
8
top_outsideCutPath
10
153.2
20
35.6875
11
153.2
21
50.2
0
LINE
8
top_outsideCutPath
10
153.2
20
50.2
11
138.6875
21
50.2
0
LINE
8
top_outsideCutPath
10
138.6875
20
50.2
11
138.6875
21
53
0
LINE
8
top_outsideCutPath
10
138.6875
20
53
11
123.3125
21
53
0
LINE
8
top_outsideCutPath
10
123.3125
20
53
11
123.3125
21
50.2
0
LINE
8
top_outsideCutPath
10
123.3125
20
50.2
11
108.8
21
50.2
0
LINE
8
back_outsideCutPath
10
0
20
206
11
0
21
194.4375
0
LINE
8
back_outsideCutPath
10
0
20
194.4375
11
2.8
21
194.4375
0
LINE
8
back_outsideCutPath
10
2.8
20
194.4375
11
2.8
21
179.0625
0
LINE
8
back_outsideCutPath
10
2.8
20
179.0625
11
0
21
179.0625
0
LINE
8
back_outsideCutPath
10
0
20
179.0625
11
0
21
163.6875
0
LINE
8
back_outsideCutPath
10
0
20
163.6875
11
2.8
21
163.6875
0
LINE
8
back_outsideCutPath
10
2.8
20
163.6875
11
2.8
21
148.3125
0
LINE
8
back_outsideCutPath
10
2.8
20
148.3125
11
0
21
148.3125
0
LINE
8
back_outsideCutPath
10
0
20
148.3125
11
0
21
132.9375
0
LINE
8
back_outsideCutPath
10
0
20
132.9375
11
2.8
21
132.9375
0
LINE
8
back_outsideCutPath
10
2.8
20
132.9375
11
2.8
21
117.5625
0
LINE
8
back_outsideCutPath
10
2.8
20
117.5625
11
0
21
117.5625
0
LINE
8
back_outsideCutPath
10
0
20
117.5625
11
0
21
106
0
LINE
8
back_outsideCutPath
10
0
20
106
11
17.3125
21
106
0
LINE
8
back_outsideCutPath
10
17.3125
20
106
11
17.3125
21
108.8
0
LINE
8
back_outsideCutPath
10
17.3125
20
108.8
11
32.6875
21
108.8
0
LINE
8
back_outsideCutPath
10
32.6875
20
108.8
11
32.6875
21
106
0
LINE
8
back_outsideCutPath
10
32.6875
20
106
11
48.0625
21
106
0
LINE
8
back_outsideCutPath
10
48.0625
20
106
11
50
21
106
0
LINE
8
back_outsideCutPath
10
50
20
106
11
50
21
117.5625
0
LINE
8
back_outsideCutPath
10
50
20
117.5625
11
47.2
21
117.5625
0
LINE
8
back_outsideCutPath
10
47.2
20
117.5625
11
47.2
21
132.9375
0
LINE
8
back_outsideCutPath
10
47.2
20
132.9375
11
50
21
132.9375
0
LINE
8
back_outsideCutPath
10
50
20
132.9375
11
50
21
148.3125
0
LINE
8
back_outsideCutPath
10
50
20
148.3125
11
47.2
21
148.3125
0
LINE
8
back_outsideCutPath
10
47.2
20
148.3125
11
47.2
21
163.6875
0
LINE
8
back_outsideCutPath
10
47.2
20
163.6875
11
50
21
163.6875
0
LINE
8
back_outsideCutPath
10
50
20
163.6875
11
50
21
179.0625
0
LINE
8
back_outsideCutPath
10
50
20
179.0625
11
47.2
21
179.0625
0
LINE
8
back_outsideCutPath
10
47.2
20
179.0625
11
47.2
21
194.4375
0
LINE
8
back_outsideCutPath
10
47.2
20
194.4375
11
50
21
194.4375
0
LINE
8
back_outsideCutPath
10
50
20
194.4375
11
50
21
206
0
LINE
8
back_outsideCutPath
10
50
20
206
11
32.6875
21
206
0
LINE
8
back_outsideCutPath
10
32.6875
20
206
11
32.6875
21
203.2
0
LINE
8
back_outsideCutPath
10
32.6875
20
203.2
11
17.3125
21
203.2
0
LINE
8
back_outsideCutPath
10
17.3125
20
203.2
11
17.3125
21
206
0
LINE
8
back_outsideCutPath
10
17.3125
20
206
11
1.9375
21
206
0
LINE
8
back_outsideCutPath
10
1.9375
20
206
11
0
21
206
0
LINE
8
right_outsideCutPath
10
55.8
20
206
11
55.8
21
194.4375
0
LINE
8
right_outsideCutPath
10
55.8
20
194.4375
11
53
21
194.4375
0
LINE
8
right_outsideCutPath
10
53
20
194.4375
11
53
21
179.0625
0
LINE
8
right_outsideCutPath
10
53
20
179.0625
11
55.8
21
179.0625
0
LINE
8
right_outsideCutPath
10
55.8
20
179.0625
11
55.8
21
163.6875
0
LINE
8
right_outsideCutPath
10
55.8
20
163.6875
11
53
21
163.6875
0
LINE
8
right_outsideCutPath
10
53
20
163.6875
11
53
21
148.3125
0
LINE
8
right_outsideCutPath
10
53
20
148.3125
11
55.8
21
148.3125
0
LINE
8
right_outsideCutPath
10
55.8
20
148.3125
11
55.8
21
132.9375
0
LINE
8
right_outsideCutPath
10
55.8
20
132.9375
11
53
21
132.9375
0
LINE
8
right_outsideCutPath
10
53
20
132.9375
11
53
21
117.5625
0
LINE
8
right_outsideCutPath
10
53
20
117.5625
11
55.8
21
117.5625
0
LINE
8
right_outsideCutPath
10
55.8
20
117.5625
11
55.8
21
106
0
LINE
8
right_outsideCutPath
10
55.8
20
106
11
70.3125
21
106
0
LINE
8
right_outsideCutPath
10
70.3125
20
106
11
70.3125
21
108.8
0
LINE
8
right_outsideCutPath
10
70.3125
20
108.8
11
85.6875
21
108.8
0
LINE
8
right_outsideCutPath
10
85.6875
20
108.8
11
85.6875
21
106
0
LINE
8
right_outsideCutPath
10
85.6875
20
106
11
100.2
21
106
0
LINE
8
right_outsideCutPath
10
100.2
20
106
11
100.2
21
117.5625
0
LINE
8
right_outsideCutPath
10
100.2
20
117.5625
11
103
21
117.5625
0
LINE
8
right_outsideCutPath
10
103
20
117.5625
11
103
21
132.9375
0
LINE
8
right_outsideCutPath
10
103
20
132.9375
11
100.2
21
132.9375
0
LINE
8
right_outsideCutPath
10
100.2
20
132.9375
11
100.2
21
148.3125
0
LINE
8
right_outsideCutPath
10
100.2
20
148.3125
11
103
21
148.3125
0
LINE
8
right_outsideCutPath
10
103
20
148.3125
11
103
21
163.6875
0
LINE
8
right_outsideCutPath
10
103
20
163.6875
11
100.2
21
163.6875
0
LINE
8
right_outsideCutPath
10
100.2
20
163.6875
11
100.2
21
179.0625
0
LINE
8
right_outsideCutPath
10
100.2
20
179.0625
11
103
21
179.0625
0
LINE
8
right_outsideCutPath
10
103
20
179.0625
11
103
21
194.4375
0
LINE
8
right_outsideCutPath
10
103
20
194.4375
11
100.2
21
194.4375
0
LINE
8
right_outsideCutPath
10
100.2
20
194.4375
11
100.2
21
206
0
LINE
8
right_outsideCutPath
10
100.2
20
206
11
85.6875
21
206
0
LINE
8
right_outsideCutPath
10
85.6875
20
206
11
85.6875
21
203.2
0
LINE
8
right_outsideCutPath
10
85.6875
20
203.2
11
70.3125
21
203.2
0
LINE
8
right_outsideCutPath
10
70.3125
20
203.2
11
70.3125
21
206
0
LINE
8
right_outsideCutPath
10
70.3125
20
206
11
55.8
21
206
0
LINE
8
bottom_outsideCutPath
10
108.8
20
103.2
11
108.8
21
88.6875
0
LINE
8
bottom_outsideCutPath
10
108.8
20
88.6875
11
106
21
88.6875
0
LINE
8
bottom_outsideCutPath
10
106
20
88.6875
11
106
21
73.3125
0
LINE
8
bottom_outsideCutPath
10
106
20
73.3125
11
108.8
21
73.3125
0
LINE
8
bottom_outsideCutPath
10
108.8
20
73.3125
11
108.8
21
58.8
0
LINE
8
bottom_outsideCutPath
10
108.8
20
58.8
11
123.3125
21
58.8
0
LINE
8
bottom_outsideCutPath
10
123.3125
20
58.8
11
123.3125
21
56
0
LINE
8
bottom_outsideCutPath
10
123.3125
20
56
11
138.6875
21
56
0
LINE
8
bottom_outsideCutPath
10
138.6875
20
56
11
138.6875
21
58.8
0
LINE
8
bottom_outsideCutPath
10
138.6875
20
58.8
11
153.2
21
58.8
0
LINE
8
bottom_outsideCutPath
10
153.2
20
58.8
11
153.2
21
73.3125
0
LINE
8
bottom_outsideCutPath
10
153.2
20
73.3125
11
156
21
73.3125
0
LINE
8
bottom_outsideCutPath
10
156
20
73.3125
11
156
21
88.6875
0
LINE
8
bottom_outsideCutPath
10
156
20
88.6875
11
153.2
21
88.6875
0
LINE
8
bottom_outsideCutPath
10
153.2
20
88.6875
11
153.2
21
103.2
0
LINE
8
bottom_outsideCutPath
10
153.2
20
103.2
11
138.6875
21
103.2
0
LINE
8
bottom_outsideCutPath
10
138.6875
20
103.2
11
138.6875
21
106
0
LINE
8
bottom_outsideCutPath
10
138.6875
20
106
11
123.3125
21
106
0
LINE
8
bottom_outsideCutPath
10
123.3125
20
106
11
123.3125
21
103.2
0
LINE
8
bottom_outsideCutPath
10
123.3125
20
103.2
11
108.8
21
103.2
0
ENDSEC
0
EOF